<?xml version="1.0" standalone="no"?>
<!DOCTYPE svg PUBLIC "-//W3C//DTD SVG 20010904//EN"
 "http://www.w3.org/TR/2001/REC-SVG-20010904/DTD/svg10.dtd">
<svg version="1.0" xmlns="http://www.w3.org/2000/svg"
 width="1200.000000pt" height="1200.000000pt" viewBox="0 0 1200.000000 1200.000000"
 preserveAspectRatio="xMidYMid meet">

<g transform="translate(0.000000,1200.000000) scale(0.100000,-0.100000)"
fill="#000000" stroke="none">
<path d="M1867 7222 c-16 -17 -17 -116 -17 -1224 0 -1155 1 -1206 18 -1221 17
-16 117 -17 1235 -17 1192 0 1217 0 1227 19 7 13 10 412 10 1221 0 809 -3
1208 -10 1221 -10 19 -35 19 -1229 19 -1167 0 -1219 -1 -1234 -18z m1633 -831
c14 -27 14 -755 0 -782 -10 -18 -25 -19 -400 -19 -340 0 -391 2 -404 16 -14
13 -16 63 -16 394 0 331 2 381 16 394 13 14 64 16 404 16 375 0 390 -1 400
-19z"/>
<path d="M4772 7228 c-17 -17 -17 -2439 0 -2456 18 -18 781 -17 797 1 7 10 12
139 13 413 l3 399 399 3 c274 1 403 6 413 13 10 9 13 87 13 399 0 348 -2 389
-17 401 -13 11 -95 15 -415 17 l-398 3 0 397 c0 296 -3 401 -12 410 -9 9 -111
12 -398 12 -287 0 -389 -3 -398 -12z"/>
<path d="M6429 7223 c-11 -13 -14 -88 -14 -394 0 -350 1 -380 18 -396 16 -17
46 -18 396 -18 306 0 381 3 394 14 15 12 17 53 17 400 0 288 -3 390 -12 399
-9 9 -111 12 -399 12 -347 0 -388 -2 -400 -17z"/>
<path d="M7670 7221 c-6 -13 -10 -155 -10 -393 0 -307 3 -378 14 -394 14 -18
30 -19 401 -19 371 0 387 1 401 19 11 16 14 87 14 397 0 330 -2 380 -16 393
-13 14 -64 16 -404 16 -375 0 -390 -1 -400 -19z"/>
<path d="M9330 7221 c-6 -13 -10 -155 -10 -393 0 -307 3 -378 14 -394 14 -18
31 -19 378 -22 200 -2 373 0 385 3 54 13 53 6 53 415 0 331 -2 381 -16 394
-13 14 -64 16 -404 16 -375 0 -390 -1 -400 -19z"/>
<path d="M8500 6391 c-6 -13 -10 -154 -10 -391 0 -237 4 -378 10 -391 10 -18
25 -19 405 -19 380 0 395 1 405 19 14 27 14 755 0 782 -10 18 -25 19 -405 19
-380 0 -395 -1 -405 -19z"/>
<path d="M6453 5580 c-42 -17 -44 -32 -41 -418 2 -295 6 -372 17 -385 12 -15
53 -17 400 -17 288 0 390 3 399 12 9 9 12 111 12 399 0 347 -2 388 -17 400
-13 11 -89 14 -382 16 -201 1 -376 -2 -388 -7z"/>
<path d="M7700 5583 c-39 -14 -40 -26 -40 -411 0 -238 4 -380 10 -393 10 -18
25 -19 400 -19 340 0 391 2 404 16 14 13 16 63 16 393 0 310 -3 381 -14 397
-14 18 -31 19 -388 21 -205 1 -380 -1 -388 -4z"/>
<path d="M9360 5583 c-39 -14 -40 -26 -40 -411 0 -238 4 -380 10 -393 10 -18
25 -19 400 -19 340 0 391 2 404 16 14 13 16 63 16 393 0 310 -3 381 -14 397
-14 18 -31 19 -388 21 -205 1 -380 -1 -388 -4z"/>
</g>
</svg>
